<svg xmlns="http://www.w3.org/2000/svg" xmlns:xlink="http://www.w3.org/1999/xlink" width="500" zoomAndPan="magnify" viewBox="0 0 375 374.999991" height="500" preserveAspectRatio="xMidYMid meet" version="1.0"><defs><g/><clipPath id="id1"><path d="M 70 117 L 174 117 L 174 231 L 70 231 Z M 70 117 " clip-rule="nonzero"/></clipPath><clipPath id="id2"><path d="M 102.808594 117.5625 L 174 202.726562 L 141.199219 230.144531 L 70.007812 144.980469 Z M 102.808594 117.5625 " clip-rule="nonzero"/></clipPath><clipPath id="id3"><path d="M 141.5 -37.453125 L 382.007812 250.261719 L 109.828125 477.785156 L -130.679688 190.070312 Z M 141.5 -37.453125 " clip-rule="nonzero"/></clipPath><clipPath id="id4"><path d="M 74 123 L 193 123 L 193 214 L 74 214 Z M 74 123 " clip-rule="nonzero"/></clipPath><clipPath id="id5"><path d="M 94.550781 123.285156 L 192.144531 176.167969 L 171.777344 213.753906 L 74.183594 160.871094 Z M 94.550781 123.285156 " clip-rule="nonzero"/></clipPath><clipPath id="id6"><path d="M 73.3125 -35.070312 L 403.015625 143.59375 L 234 455.492188 L -95.703125 276.828125 Z M 73.3125 -35.070312 " clip-rule="nonzero"/></clipPath></defs><g clip-path="url(#id1)"><g clip-path="url(#id2)"><g clip-path="url(#id3)"><path fill="#387b92" d="M 237.472656 370.476562 C 239.746094 368.6875 241.207031 365.859375 240.753906 362.195312 C 237.886719 339.15625 241.96875 306.386719 269.863281 302.351562 C 276.46875 301.394531 280.160156 292.488281 275.367188 287.429688 C 258.871094 270.027344 285.542969 257.726562 301.128906 263.976562 C 308.152344 266.785156 316.507812 258.519531 312.578125 251.542969 C 308.839844 244.902344 306.28125 237.878906 303.070312 231.003906 C 301.960938 228.625 300.597656 226.464844 299.09375 224.421875 C 308.207031 221.929688 317.753906 222.398438 325.925781 228.445312 C 333.980469 234.410156 341.949219 225.039062 339.492188 217.105469 C 330.75 188.902344 305.757812 169.105469 280.21875 156.542969 C 253.039062 143.164062 225.597656 145.320312 197.792969 155.15625 C 185.25 159.582031 173.113281 164.542969 159.902344 166.664062 C 147.234375 168.695312 134.777344 165.683594 122.976562 161.15625 C 107.328125 155.160156 85.980469 141.296875 82.832031 123.105469 C 82.980469 122.851562 83.113281 122.585938 83.273438 122.339844 C 85.289062 119.203125 89.144531 118.332031 92.402344 117.007812 C 97.554688 114.914062 103.597656 111.75 102.675781 105.304688 C 101.828125 99.375 94.621094 97.007812 89.640625 96.609375 C 85.078125 96.246094 80.402344 97.167969 75.90625 98.515625 C 74.289062 98.578125 21.023438 115.960938 12.515625 92.484375 C 10.726562 87.527344 6.449219 86.304688 2.59375 87.429688 C -0.0546875 86.457031 -3.148438 86.65625 -6.011719 88.855469 C -48.9375 121.820312 -68.441406 172.507812 -59.371094 225.75 C -50.4375 278.167969 -17.632812 325.222656 23.042969 358.3125 C 52.1875 382.027344 87.746094 398.664062 125.210938 403.058594 C 164.65625 407.6875 203.386719 395.914062 235.25 372.714844 C 236.191406 372.027344 236.917969 371.269531 237.472656 370.476562 " fill-opacity="1" fill-rule="nonzero"/><path fill="#d7a86e" d="M 60.753906 168.902344 C 81.949219 203.0625 107.480469 238.019531 148.171875 248.871094 C 165.175781 253.402344 182.898438 254.675781 200.4375 254.433594 C 216.867188 254.199219 232.636719 255.546875 242.863281 270.148438 C 250.992188 281.765625 247.769531 293.496094 238.601562 303.054688 C 230.238281 311.773438 220.875 320.53125 222.648438 333.855469 C 224.089844 344.738281 230.347656 354.46875 239.28125 360.816406 C 239.757812 361.152344 240.230469 361.460938 240.707031 361.765625 C 237.941406 338.757812 242.140625 306.363281 269.863281 302.351562 C 276.46875 301.394531 280.160156 292.488281 275.367188 287.429688 C 258.871094 270.027344 285.542969 257.726562 301.128906 263.976562 C 308.152344 266.785156 316.507812 258.519531 312.578125 251.542969 C 308.839844 244.902344 306.28125 237.878906 303.070312 231.003906 C 301.960938 228.625 300.597656 226.464844 299.09375 224.421875 C 308.207031 221.929688 317.753906 222.398438 325.925781 228.445312 C 333.980469 234.410156 341.949219 225.039062 339.492188 217.105469 C 330.75 188.902344 305.757812 169.105469 280.21875 156.542969 C 253.039062 143.164062 225.597656 145.320312 197.792969 155.15625 C 185.25 159.582031 173.113281 164.542969 159.902344 166.664062 C 147.234375 168.695312 134.777344 165.683594 122.976562 161.15625 C 107.328125 155.160156 85.980469 141.296875 82.832031 123.105469 C 82.980469 122.851562 83.113281 122.585938 83.273438 122.339844 C 85.289062 119.203125 89.144531 118.332031 92.402344 117.007812 C 97.554688 114.914062 103.597656 111.75 102.675781 105.304688 C 101.828125 99.375 94.621094 97.007812 89.640625 96.609375 C 85.078125 96.246094 80.402344 97.167969 75.90625 98.515625 C 74.289062 98.578125 21.023438 115.960938 12.515625 92.484375 C 10.726562 87.527344 6.449219 86.304688 2.59375 87.429688 C -0.0546875 86.457031 -3.148438 86.65625 -6.011719 88.855469 C -8.246094 90.574219 -10.402344 92.347656 -12.503906 94.15625 C 21.859375 89.25 46.054688 145.207031 60.753906 168.902344 " fill-opacity="1" fill-rule="nonzero"/></g></g></g><g clip-path="url(#id4)"><g clip-path="url(#id5)"><g clip-path="url(#id6)"><path fill="#d7a86e" d="M 313.035156 308.65625 C 314.492188 306.15625 314.804688 302.988281 313.03125 299.75 C 301.863281 279.394531 293.566406 247.429688 318.003906 233.390625 C 323.792969 230.0625 323.933594 220.421875 317.613281 217.488281 C 295.863281 207.398438 316.109375 186.125 332.902344 186.183594 C 340.46875 186.203125 345.183594 175.4375 338.957031 170.40625 C 333.03125 165.609375 328.0625 160.027344 322.542969 154.820312 C 320.632812 153.023438 318.570312 151.511719 316.417969 150.171875 C 323.96875 144.492188 333.011719 141.40625 342.839844 144.011719 C 352.527344 146.578125 356.472656 134.929688 351.265625 128.464844 C 332.734375 105.476562 302.199219 96.296875 273.828125 94.046875 C 243.628906 91.644531 218.917969 103.773438 196.707031 123.171875 C 186.679688 131.917969 177.230469 141.003906 165.734375 147.851562 C 154.710938 154.414062 142.019531 156.210938 129.382812 156.355469 C 112.625 156.554688 87.667969 151.550781 78.03125 135.804688 C 78.074219 135.515625 78.101562 135.21875 78.160156 134.929688 C 78.875 131.269531 82.136719 129.039062 84.675781 126.605469 C 88.691406 122.761719 93.140625 117.585938 89.90625 111.9375 C 86.929688 106.742188 79.359375 107.199219 74.582031 108.667969 C 70.207031 110.011719 66.203125 112.597656 62.523438 115.507812 C 61.039062 116.164062 17.949219 151.972656 1.378906 133.289062 C -2.117188 129.347656 -6.542969 129.785156 -9.710938 132.257812 C -12.527344 132.328125 -15.332031 133.652344 -17.183594 136.757812 C -44.914062 183.230469 -44.339844 237.542969 -16.261719 283.679688 C 11.382812 329.101562 59.234375 360.730469 109.25 376.476562 C 145.089844 387.761719 184.277344 390.105469 220.71875 380.363281 C 259.089844 370.113281 290.746094 344.875 311.796875 311.558594 C 312.417969 310.570312 312.816406 309.601562 313.035156 308.65625 " fill-opacity="1" fill-rule="nonzero"/><path fill="#d7a86e" d="M 74.410156 186.519531 C 106.714844 210.445312 143.34375 233.515625 185.167969 228.585938 C 202.640625 226.519531 219.585938 221.167969 235.796875 214.472656 C 250.980469 208.1875 266.132812 203.621094 281.027344 213.421875 C 292.871094 221.21875 294.203125 233.308594 289.210938 245.578125 C 284.652344 256.765625 279.183594 268.359375 285.746094 280.09375 C 291.101562 289.675781 300.507812 296.40625 311.152344 299.011719 C 311.722656 299.148438 312.273438 299.261719 312.828125 299.371094 C 301.769531 279.003906 293.71875 247.347656 318.003906 233.390625 C 323.792969 230.0625 323.933594 220.421875 317.613281 217.488281 C 295.863281 207.398438 316.109375 186.125 332.902344 186.183594 C 340.46875 186.203125 345.183594 175.4375 338.957031 170.40625 C 333.03125 165.609375 328.0625 160.027344 322.542969 154.820312 C 320.632812 153.023438 318.570312 151.511719 316.417969 150.171875 C 323.96875 144.492188 333.011719 141.40625 342.839844 144.011719 C 352.527344 146.578125 356.472656 134.929688 351.265625 128.464844 C 332.734375 105.476562 302.199219 96.296875 273.828125 94.046875 C 243.628906 91.644531 218.917969 103.773438 196.707031 123.171875 C 186.679688 131.917969 177.230469 141.003906 165.734375 147.851562 C 154.710938 154.414062 142.019531 156.210938 129.382812 156.355469 C 112.625 156.554688 87.667969 151.550781 78.03125 135.804688 C 78.074219 135.515625 78.101562 135.21875 78.160156 134.929688 C 78.875 131.269531 82.136719 129.039062 84.675781 126.605469 C 88.691406 122.761719 93.140625 117.585938 89.90625 111.9375 C 86.929688 106.742188 79.359375 107.199219 74.582031 108.667969 C 70.207031 110.011719 66.203125 112.597656 62.523438 115.507812 C 61.039062 116.164062 17.949219 151.972656 1.378906 133.289062 C -2.117188 129.347656 -6.542969 129.785156 -9.710938 132.257812 C -12.527344 132.328125 -15.332031 133.652344 -17.183594 136.757812 C -18.621094 139.175781 -19.972656 141.621094 -21.261719 144.078125 C 8.871094 126.839844 52.003906 169.914062 74.410156 186.519531 " fill-opacity="1" fill-rule="nonzero"/></g></g></g><path fill="#a64b2a" d="M 374.53125 198.070312 C 374.617188 195.179688 373.386719 192.246094 370.285156 190.242188 C 350.769531 177.667969 328.246094 153.515625 343.039062 129.527344 C 346.542969 123.84375 342.074219 115.300781 335.121094 115.734375 C 311.1875 117.226562 318.855469 88.875 333.648438 80.929688 C 340.308594 77.339844 339.328125 65.628906 331.453125 64.167969 C 323.960938 62.777344 316.929688 60.238281 309.597656 58.292969 C 307.058594 57.617188 304.527344 57.273438 301.996094 57.121094 C 305.929688 48.53125 312.410156 41.507812 322.292969 39.113281 C 332.035156 36.757812 329.953125 24.636719 322.292969 21.433594 C 295.046875 10.050781 263.828125 16.527344 237.8125 28.066406 C 210.113281 40.339844 194.167969 62.777344 183.882812 90.417969 C 179.234375 102.882812 175.253906 115.375 168.40625 126.871094 C 161.84375 137.894531 151.542969 145.515625 140.5 151.667969 C 125.863281 159.828125 101.535156 167.316406 85.558594 158.066406 C 85.460938 157.789062 85.34375 157.515625 85.257812 157.234375 C 84.140625 153.675781 85.945312 150.160156 87.019531 146.8125 C 88.71875 141.519531 90.167969 134.847656 84.628906 131.421875 C 79.535156 128.269531 73.101562 132.28125 69.597656 135.847656 C 66.394531 139.113281 64.101562 143.292969 62.253906 147.605469 C 61.261719 148.890625 40.4375 200.90625 16.96875 192.371094 C 12.015625 190.570312 8.335938 193.066406 6.726562 196.746094 C 4.28125 198.152344 2.449219 200.65625 2.300781 204.265625 C 0.0625 258.339844 26.441406 305.816406 73.109375 333 C 119.054688 359.765625 176.199219 364.777344 227.671875 354.789062 C 264.5625 347.636719 300.132812 331.027344 327.53125 305.101562 C 356.382812 277.808594 372.191406 240.539062 374.824219 201.214844 C 374.902344 200.046875 374.789062 199.007812 374.53125 198.070312 " fill-opacity="1" fill-rule="nonzero"/><path fill="#8e3200" d="M 359.140625 219.132812 C 348.246094 230.390625 335.203125 242.253906 319.558594 246.097656 C 304.433594 249.816406 286.675781 249.523438 274.320312 239.070312 C 271.632812 236.792969 269.078125 234.074219 266.140625 232.128906 C 264.0625 230.75 261.804688 233.617188 259.992188 235.214844 C 254.589844 239.96875 249.285156 243.683594 242.660156 246.574219 C 228.414062 252.789062 212.285156 254.589844 196.863281 253.84375 C 163.941406 252.25 131.476562 242.058594 101.84375 227.953125 C 85.914062 220.375 70.148438 210.808594 52.386719 208.257812 C 43.273438 206.945312 30.320312 205.96875 21.960938 210.507812 C 15.660156 213.925781 10.640625 218.671875 3.71875 220.863281 C 3.316406 220.984375 2.921875 221.011719 2.546875 220.964844 C 5.8125 268.027344 31.316406 308.660156 73.109375 333 C 119.054688 359.765625 176.199219 364.777344 227.671875 354.789062 C 264.5625 347.636719 300.132812 331.027344 327.53125 305.101562 C 356.308594 277.878906 372.113281 240.71875 374.796875 201.5 C 369.65625 207.507812 364.5625 213.535156 359.140625 219.132812 " fill-opacity="1" fill-rule="nonzero"/><path fill="#d7a86e" d="M 106.539062 204.375 C 146.339844 210.023438 189.535156 212.851562 223.960938 188.59375 C 238.339844 178.453125 250.6875 165.675781 261.746094 152.0625 C 272.105469 139.304688 283.25 128.070312 301.015625 129.589844 C 315.144531 130.800781 322.078125 140.800781 323.53125 153.964844 C 324.855469 165.972656 325.570312 178.773438 336.929688 185.960938 C 346.203125 191.832031 357.683594 193.269531 368.28125 190.488281 C 368.847656 190.339844 369.386719 190.175781 369.925781 190.007812 C 350.496094 177.371094 328.335938 153.371094 343.039062 129.527344 C 346.542969 123.84375 342.074219 115.300781 335.121094 115.734375 C 311.1875 117.226562 318.855469 88.875 333.648438 80.929688 C 340.308594 77.339844 339.328125 65.628906 331.453125 64.167969 C 323.960938 62.777344 316.929688 60.238281 309.597656 58.292969 C 307.058594 57.617188 304.527344 57.273438 301.996094 57.121094 C 305.929688 48.53125 312.410156 41.507812 322.292969 39.113281 C 332.035156 36.757812 329.953125 24.636719 322.292969 21.433594 C 295.046875 10.050781 263.828125 16.527344 237.8125 28.066406 C 210.113281 40.339844 194.167969 62.777344 183.882812 90.417969 C 179.234375 102.882812 175.253906 115.375 168.40625 126.871094 C 161.84375 137.894531 151.542969 145.515625 140.5 151.667969 C 125.863281 159.828125 101.535156 167.316406 85.558594 158.066406 C 85.460938 157.789062 85.34375 157.515625 85.257812 157.234375 C 84.140625 153.675781 85.945312 150.160156 87.019531 146.8125 C 88.71875 141.519531 90.167969 134.847656 84.628906 131.421875 C 79.535156 128.269531 73.101562 132.28125 69.597656 135.847656 C 66.394531 139.113281 64.101562 143.292969 62.253906 147.605469 C 61.261719 148.890625 40.4375 200.90625 16.96875 192.371094 C 12.015625 190.570312 8.335938 193.066406 6.726562 196.746094 C 4.28125 198.152344 2.449219 200.65625 2.300781 204.265625 C 2.1875 207.078125 2.167969 209.871094 2.203125 212.644531 C 20.480469 183.132812 78.929688 200.453125 106.539062 204.375 " fill-opacity="1" fill-rule="nonzero"/><path fill="#a64b2a" d="M 103.582031 111.832031 C 100.921875 111.527344 98.28125 113.128906 96.066406 115.078125 C 92.703125 117.875 86.382812 123.039062 90.953125 127.433594 C 95.460938 131.773438 102.449219 128.804688 106.292969 125.058594 C 110.179688 121.269531 110.140625 112.582031 103.582031 111.832031 " fill-opacity="1" fill-rule="nonzero"/><g fill="#ffffff" fill-opacity="1"><g transform="translate(45.431661, 225.070753)"><g><path d="M 39.65625 -68.5 C 29.40625 -68.5 24.28125 -58.617188 24.28125 -38.859375 L 24.28125 -31.03125 C 24.28125 -21.644531 25.632812 -14.289062 28.34375 -8.96875 C 31.050781 -3.644531 35.050781 -0.984375 40.34375 -0.984375 C 47.613281 -0.984375 54.285156 -8.054688 60.359375 -22.203125 L 62.15625 -22.203125 L 61.453125 -0.09375 L 60.359375 -0.09375 C 59.960938 -0.820312 59.597656 -1.332031 59.265625 -1.625 C 58.941406 -1.925781 58.460938 -2.078125 57.828125 -2.078125 C 57.203125 -2.078125 54.804688 -1.566406 50.640625 -0.546875 C 46.484375 0.472656 42.257812 0.984375 37.96875 0.984375 C 27.195312 0.984375 18.851562 -1.921875 12.9375 -7.734375 C 7.019531 -13.546875 4.0625 -22.285156 4.0625 -33.953125 C 4.0625 -45.617188 7.148438 -54.625 13.328125 -60.96875 C 19.503906 -67.3125 27.816406 -70.484375 38.265625 -70.484375 C 42.296875 -70.484375 46.242188 -69.96875 50.109375 -68.9375 C 53.972656 -67.914062 56.234375 -67.40625 56.890625 -67.40625 C 57.554688 -67.40625 58.050781 -67.550781 58.375 -67.84375 C 58.707031 -68.144531 59.070312 -68.660156 59.46875 -69.390625 L 60.5625 -69.390625 L 61.359375 -47.875 L 59.578125 -47.875 C 56.597656 -54.550781 53.539062 -59.65625 50.40625 -63.1875 C 47.269531 -66.726562 43.6875 -68.5 39.65625 -68.5 Z M 39.65625 -68.5 "/></g></g></g><g fill="#ffffff" fill-opacity="1"><g transform="translate(113.820178, 225.070753)"><g><path d="M 27.0625 0.984375 C 18.539062 0.984375 12.144531 -1.207031 7.875 -5.59375 C 3.613281 -9.988281 1.484375 -16.101562 1.484375 -23.9375 C 1.484375 -31.769531 3.878906 -37.765625 8.671875 -41.921875 C 13.460938 -46.085938 19.5625 -48.171875 26.96875 -48.171875 C 41.96875 -48.171875 49.171875 -40.640625 48.578125 -25.578125 L 20.625 -25.578125 L 20.625 -21.703125 C 20.625 -15.234375 21.445312 -10.34375 23.09375 -7.03125 C 24.75 -3.726562 27.625 -2.078125 31.71875 -2.078125 C 39.382812 -2.078125 44.40625 -6.175781 46.78125 -14.375 L 48.578125 -14.078125 C 47.316406 -9.316406 45.050781 -5.613281 41.78125 -2.96875 C 38.507812 -0.332031 33.601562 0.984375 27.0625 0.984375 Z M 20.71875 -27.5625 L 30.921875 -27.5625 L 30.921875 -32.40625 C 30.921875 -37.757812 30.609375 -41.410156 29.984375 -43.359375 C 29.359375 -45.316406 28.101562 -46.296875 26.21875 -46.296875 C 24.332031 -46.296875 22.941406 -45.253906 22.046875 -43.171875 C 21.160156 -41.085938 20.71875 -37.5 20.71875 -32.40625 Z M 20.71875 -27.5625 "/></g></g></g><g fill="#ffffff" fill-opacity="1"><g transform="translate(164.962893, 225.070753)"><g><path d="M 37.171875 -26.671875 C 37.171875 -33.472656 36.835938 -38.046875 36.171875 -40.390625 C 35.515625 -42.734375 34.226562 -43.90625 32.3125 -43.90625 C 30.394531 -43.90625 28.675781 -42.71875 27.15625 -40.34375 C 25.632812 -37.96875 24.875 -34.695312 24.875 -30.53125 L 24.875 -12.09375 C 24.875 -9.25 25.453125 -6.835938 26.609375 -4.859375 C 27.765625 -2.878906 29.414062 -1.890625 31.5625 -1.890625 C 33.71875 -1.890625 35.191406 -3.34375 35.984375 -6.25 C 36.773438 -9.15625 37.171875 -14.242188 37.171875 -21.515625 Z M 24.875 -74.34375 L 24.875 -39.65625 C 27.382812 -45.332031 31.679688 -48.171875 37.765625 -48.171875 C 50.117188 -48.171875 56.296875 -39.945312 56.296875 -23.5 C 56.296875 -15.101562 54.59375 -8.921875 51.1875 -4.953125 C 47.789062 -0.992188 42.691406 0.984375 35.890625 0.984375 C 32.453125 0.984375 29.820312 0.457031 28 -0.59375 C 26.1875 -1.65625 24.945312 -3.40625 24.28125 -5.84375 L 23.59375 0 L 0.984375 0 L 0.984375 -1.78125 L 6.4375 -1.78125 L 6.4375 -72.5625 L 0.984375 -72.5625 L 0.984375 -74.34375 Z M 24.875 -74.34375 "/></g></g></g><g fill="#ffffff" fill-opacity="1"><g transform="translate(223.241809, 225.070753)"><g><path d="M 24.78125 -23.296875 L 27.65625 -23.296875 L 27.65625 -30.921875 C 27.65625 -37.203125 27.304688 -41.414062 26.609375 -43.5625 C 25.921875 -45.707031 24.582031 -46.78125 22.59375 -46.78125 C 21.40625 -46.78125 20.332031 -46.46875 19.375 -45.84375 C 18.414062 -45.21875 17.9375 -44.359375 17.9375 -43.265625 C 17.9375 -42.171875 18.132812 -41.066406 18.53125 -39.953125 L 21.015625 -39.953125 C 21.546875 -38.554688 21.8125 -36.882812 21.8125 -34.9375 C 21.8125 -32.988281 20.984375 -31.300781 19.328125 -29.875 C 17.671875 -28.457031 15.585938 -27.75 13.078125 -27.75 C 7.398438 -27.75 4.5625 -30.492188 4.5625 -35.984375 C 4.5625 -44.109375 11.46875 -48.171875 25.28125 -48.171875 C 33.144531 -48.171875 38.578125 -46.832031 41.578125 -44.15625 C 44.585938 -41.476562 46.09375 -36.570312 46.09375 -29.4375 L 46.09375 -9.3125 C 46.09375 -5.875 47.050781 -4.15625 48.96875 -4.15625 C 51.21875 -4.15625 52.539062 -7.5625 52.9375 -14.375 L 54.421875 -14.28125 C 54.148438 -8.457031 53.054688 -4.457031 51.140625 -2.28125 C 49.234375 -0.101562 46.097656 0.984375 41.734375 0.984375 C 33.804688 0.984375 29.242188 -1.457031 28.046875 -6.34375 C 27.191406 -3.832031 25.90625 -1.984375 24.1875 -0.796875 C 22.46875 0.390625 19.957031 0.984375 16.65625 0.984375 C 6.875 0.984375 1.984375 -3.007812 1.984375 -11 C 1.984375 -15.695312 3.847656 -18.921875 7.578125 -20.671875 C 11.316406 -22.421875 17.050781 -23.296875 24.78125 -23.296875 Z M 20.8125 -11.109375 C 20.8125 -7.671875 20.992188 -5.453125 21.359375 -4.453125 C 21.722656 -3.460938 22.414062 -2.96875 23.4375 -2.96875 C 24.46875 -2.96875 25.425781 -3.8125 26.3125 -5.5 C 27.207031 -7.1875 27.65625 -9.515625 27.65625 -12.484375 L 27.65625 -21.703125 L 26.96875 -21.703125 C 22.863281 -21.703125 20.8125 -18.695312 20.8125 -12.6875 Z M 20.8125 -11.109375 "/></g></g></g><g fill="#ffffff" fill-opacity="1"><g transform="translate(277.655278, 225.070753)"><g><path d="M 1.1875 -47.1875 L 25.078125 -47.1875 L 25.078125 -38.0625 C 26.140625 -41.101562 27.757812 -43.546875 29.9375 -45.390625 C 32.113281 -47.242188 35.414062 -48.171875 39.84375 -48.171875 C 50.09375 -48.171875 55.21875 -42.65625 55.21875 -31.625 L 55.21875 -1.78125 L 60.765625 -1.78125 L 60.765625 0 L 32.71875 0 L 32.71875 -1.78125 L 36.78125 -1.78125 L 36.78125 -34 C 36.78125 -37.96875 36.515625 -40.53125 35.984375 -41.6875 C 35.453125 -42.84375 34.492188 -43.421875 33.109375 -43.421875 C 30.992188 -43.421875 29.125 -42.03125 27.5 -39.25 C 25.882812 -36.476562 25.078125 -33.109375 25.078125 -29.140625 L 25.078125 -1.78125 L 29.34375 -1.78125 L 29.34375 0 L 1.1875 0 L 1.1875 -1.78125 L 6.640625 -1.78125 L 6.640625 -45.40625 L 1.1875 -45.40625 Z M 1.1875 -47.1875 "/></g></g></g><g fill="#ffffff" fill-opacity="1"><g transform="translate(212.010166, 308.113771)"><g><path d="M 39.65625 -68.5 C 29.40625 -68.5 24.28125 -58.617188 24.28125 -38.859375 L 24.28125 -31.03125 C 24.28125 -21.644531 25.632812 -14.289062 28.34375 -8.96875 C 31.050781 -3.644531 35.050781 -0.984375 40.34375 -0.984375 C 47.613281 -0.984375 54.285156 -8.054688 60.359375 -22.203125 L 62.15625 -22.203125 L 61.453125 -0.09375 L 60.359375 -0.09375 C 59.960938 -0.820312 59.597656 -1.332031 59.265625 -1.625 C 58.941406 -1.925781 58.460938 -2.078125 57.828125 -2.078125 C 57.203125 -2.078125 54.804688 -1.566406 50.640625 -0.546875 C 46.484375 0.472656 42.257812 0.984375 37.96875 0.984375 C 27.195312 0.984375 18.851562 -1.921875 12.9375 -7.734375 C 7.019531 -13.546875 4.0625 -22.285156 4.0625 -33.953125 C 4.0625 -45.617188 7.148438 -54.625 13.328125 -60.96875 C 19.503906 -67.3125 27.816406 -70.484375 38.265625 -70.484375 C 42.296875 -70.484375 46.242188 -69.96875 50.109375 -68.9375 C 53.972656 -67.914062 56.234375 -67.40625 56.890625 -67.40625 C 57.554688 -67.40625 58.050781 -67.550781 58.375 -67.84375 C 58.707031 -68.144531 59.070312 -68.660156 59.46875 -69.390625 L 60.5625 -69.390625 L 61.359375 -47.875 L 59.578125 -47.875 C 56.597656 -54.550781 53.539062 -59.65625 50.40625 -63.1875 C 47.269531 -66.726562 43.6875 -68.5 39.65625 -68.5 Z M 39.65625 -68.5 "/></g></g></g><g fill="#ffffff" fill-opacity="1"><g transform="translate(280.398683, 308.113771)"><g><path d="M 15.5625 -54.015625 C 12.0625 -54.015625 9.566406 -54.90625 8.078125 -56.6875 C 6.585938 -58.476562 5.84375 -60.695312 5.84375 -63.34375 C 5.84375 -65.988281 6.648438 -68.164062 8.265625 -69.875 C 9.890625 -71.59375 12.351562 -72.453125 15.65625 -72.453125 C 18.96875 -72.453125 21.476562 -71.675781 23.1875 -70.125 C 24.90625 -68.570312 25.765625 -66.359375 25.765625 -63.484375 C 25.765625 -60.609375 24.9375 -58.3125 23.28125 -56.59375 C 21.632812 -54.875 19.0625 -54.015625 15.5625 -54.015625 Z M 0.59375 -47.1875 L 24.875 -47.1875 L 24.875 -1.78125 L 30.4375 -1.78125 L 30.4375 0 L 0.984375 0 L 0.984375 -1.78125 L 6.4375 -1.78125 L 6.4375 -45.40625 L 0.59375 -45.40625 Z M 0.59375 -47.1875 "/></g></g></g><g fill="#ffffff" fill-opacity="1"><g transform="translate(311.817759, 308.113771)"><g><path d="M 0.59375 -74.34375 L 24.875 -74.34375 L 24.875 -1.78125 L 30.4375 -1.78125 L 30.4375 0 L 0.984375 0 L 0.984375 -1.78125 L 6.4375 -1.78125 L 6.4375 -72.5625 L 0.59375 -72.5625 Z M 0.59375 -74.34375 "/></g></g></g><g fill="#ffffff" fill-opacity="1"><g transform="translate(343.137722, 308.113771)"><g><path d="M 13.03125 0.984375 C 10.15625 0.984375 8.003906 0.144531 6.578125 -1.53125 C 5.160156 -3.21875 4.453125 -5.265625 4.453125 -7.671875 C 4.453125 -10.085938 5.195312 -12.117188 6.6875 -13.765625 C 8.175781 -15.421875 10.273438 -16.25 12.984375 -16.25 C 15.691406 -16.25 17.835938 -15.554688 19.421875 -14.171875 C 21.015625 -12.785156 21.8125 -10.703125 21.8125 -7.921875 C 21.8125 -5.148438 21.066406 -2.972656 19.578125 -1.390625 C 18.085938 0.191406 15.90625 0.984375 13.03125 0.984375 Z M 13.03125 0.984375 "/></g></g></g></svg>